<svg width="32" height="32" viewBox="0 0 32 32" fill="none" xmlns="http://www.w3.org/2000/svg">
<path fill-rule="evenodd" clip-rule="evenodd" d="M16 31C24.2843 31 31 24.2843 31 16C31 7.71573 24.2843 1 16 1C7.71573 1 1 7.71573 1 16C1 24.2843 7.71573 31 16 31ZM16 29C23.1797 29 29 23.1797 29 16C29 8.8203 23.1797 3 16 3C8.8203 3 3 8.8203 3 16C3 23.1797 8.8203 29 16 29Z" fill="#3F3F3F"/>
<path d="M18.5 5H13.5L14 20H18L18.5 5Z" fill="#3F3F3F"/>
<ellipse cx="16" cy="24.5" rx="2.75" ry="2.5" fill="#3F3F3F"/>
</svg>
