<?xml version="1.0" encoding="UTF-8" standalone="no"?>
<!DOCTYPE svg PUBLIC "-//W3C//DTD SVG 1.1//EN" "http://www.w3.org/Graphics/SVG/1.1/DTD/svg11.dtd">
<svg width="100%" height="100%" viewBox="0 0 25 25" version="1.1" xmlns="http://www.w3.org/2000/svg" xmlns:xlink="http://www.w3.org/1999/xlink" xml:space="preserve" xmlns:serif="http://www.serif.com/" style="fill-rule:evenodd;clip-rule:evenodd;stroke-linecap:round;">
    <g transform="matrix(1,0,0,1,0.5,0.5)">
        <path d="M22.282,9.821C22.824,8.187 22.636,6.396 21.766,4.911C20.46,2.638 17.819,1.462 15.256,2.011C14.106,0.732 12.465,0.001 10.745,0.001C8.129,0.001 5.794,1.693 4.981,4.18C3.294,4.526 1.836,5.584 0.983,7.08C-0.337,9.349 -0.035,12.231 1.726,14.177C1.181,15.81 1.367,17.602 2.236,19.088C3.543,21.362 6.187,22.538 8.751,21.988C9.894,23.276 11.538,24.009 13.26,24C15.887,24.002 18.23,22.295 19.032,19.794C20.718,19.447 22.176,18.39 23.029,16.894C24.333,14.629 24.03,11.764 22.282,9.821ZM13.26,22.43C12.209,22.432 11.191,22.063 10.384,21.39L10.525,21.309L15.304,18.551C15.545,18.409 15.694,18.15 15.696,17.87L15.696,11.133L17.716,12.301C17.736,12.311 17.75,12.331 17.754,12.353L17.754,17.936C17.749,20.399 15.723,22.425 13.26,22.43ZM3.6,18.304C3.073,17.394 2.883,16.326 3.065,15.29L3.207,15.375L7.99,18.134C8.231,18.275 8.529,18.275 8.77,18.134L14.613,14.765L14.613,17.097C14.612,17.122 14.6,17.145 14.58,17.159L9.74,19.95C7.604,21.18 4.835,20.437 3.6,18.304ZM2.34,7.896C2.871,6.98 3.709,6.281 4.706,5.923L4.706,11.6C4.702,11.879 4.851,12.138 5.094,12.276L10.909,15.631L8.889,16.799C8.867,16.811 8.84,16.811 8.818,16.799L3.988,14.013C1.855,12.778 1.112,10.009 2.34,7.872L2.34,7.896ZM18.937,11.751L13.104,8.364L15.119,7.2C15.141,7.188 15.168,7.188 15.19,7.2L20.02,9.991C21.41,10.792 22.27,12.28 22.27,13.885C22.27,15.757 21.099,17.442 19.344,18.096L19.344,12.418C19.335,12.14 19.181,11.886 18.937,11.751ZM20.947,8.728L20.806,8.643L16.032,5.861C15.79,5.719 15.489,5.719 15.247,5.861L9.409,9.23L9.409,6.897C9.407,6.873 9.417,6.85 9.437,6.836L14.267,4.049C14.95,3.656 15.724,3.449 16.512,3.449C18.98,3.449 21.012,5.481 21.012,7.949C21.012,8.204 20.99,8.458 20.947,8.709L20.947,8.728ZM8.307,12.863L6.287,11.699C6.266,11.687 6.252,11.666 6.249,11.642L6.249,6.075C6.254,3.61 8.284,1.584 10.749,1.584C11.799,1.584 12.816,1.951 13.624,2.622L13.482,2.702L8.704,5.46C8.462,5.602 8.313,5.861 8.311,6.141L8.307,12.863ZM9.404,10.498L12.006,8.998L14.613,10.498L14.613,13.497L12.016,14.997L9.409,13.497L9.404,10.498Z" style="fill:none;fill-rule:nonzero;stroke:black;stroke-width:1px;stroke-dasharray:2,2,0,0;"/>
    </g>
</svg>
